# xmcd
#
# Track frame offsets:
#	150
#	15249
#	30767
#	42626
#	60494
#	76868
#	93005
#	108368
#	124257
#	137479
#	154274
#	166505
#
# Disc length: 2415 seconds
#
# Revision: 1
# Processed by: cddbd v1.5.2PL0 Copyright (c) Steve Scherf et al.
# Submitted via: audiograbber 1.83.01
#
DISCID=7c096d0c
DTITLE=Brett Eldredge - Illinois
DYEAR=2015
DGENRE=Country
TTITLE0=Fire
TTITLE1=You Can't Stop Me (Feat. Thomas Rhett)
TTITLE2=Lose My Mind
TTITLE3=Wanna Be That Song
TTITLE4=Time Well Spent
TTITLE5=If You Were My Girl
TTITLE6=Illinois
TTITLE7=Just A Taste
TTITLE8=Drunk On Your Love
TTITLE9=Lose It All
TTITLE10=Shadow
TTITLE11=Going Away For A While
EXTD=
EXTT0=
EXTT1=
EXTT2=
EXTT3=
EXTT4=
EXTT5=
EXTT6=
EXTT7=
EXTT8=
EXTT9=
EXTT10=
EXTT11=
PLAYORDER=
